<?xml version="1.0" encoding="utf-8"?><svg width="200" height="200" viewBox="0 0 200 200" style="background:#000" id="oddscheckerLogo"  xmlns="http://www.w3.org/2000/svg" xmlns:xlink="http://www.w3.org/1999/xlink"><title>default</title><defs><path id="cta" d="M.037 25.963h184.86V.58H.037z"/></defs><g transform="translate(8 87)" fill="none" fill-rule="evenodd"><mask id="ctb" fill="#fff"><use xlink:href="#cta"/></mask><path d="M87.427 22.789s-.103.193-.448.553c-1.698 1.77-3.744 2.654-6.141 2.654-2.388 0-4.43-.884-6.127-2.654-1.696-1.77-2.545-3.905-2.545-6.405 0-2.5.849-4.637 2.545-6.405 1.697-1.77 3.74-2.655 6.127-2.655 2.397 0 4.45.878 6.141 2.655.362.38 0 0 .495.535l-1.896 2.751c-.591-.605-.706-.714-.9-.903-1.095-1.061-2.337-1.653-3.84-1.653-1.494 0-2.772.554-3.833 1.66-1.062 1.109-1.593 2.447-1.593 4.015 0 1.558.531 2.89 1.593 3.996 1.061 1.108 2.339 1.662 3.833 1.662 1.503 0 2.776-.564 3.854-1.653.17-.172.44-.417.847-.925l1.888 2.772M178.973 10.472c1.177-1.83 3.562-2.444 5.924-2.587v3.45c-1.148.071-3.644.507-4.325 1.29-1.026 1.165-1.56 2.553-1.6 4.161v9.188h-3.154V7.905l3.159.01-.004 2.557M140.366 22.792s-.103.193-.45.553c-1.695 1.77-3.742 2.655-6.14 2.655-2.387 0-4.429-.885-6.125-2.655-1.698-1.77-2.545-3.906-2.545-6.408 0-2.5.847-4.637 2.545-6.407 1.696-1.77 3.738-2.655 6.126-2.655 2.397 0 4.45.878 6.14 2.655.364.381 0 0 .496.535l-1.897 2.753c-.59-.606-.704-.714-.9-.903-1.094-1.062-2.336-1.654-3.84-1.654-1.493 0-2.771.554-3.832 1.661-1.062 1.109-1.593 2.447-1.593 4.015 0 1.558.531 2.892 1.593 3.999 1.061 1.108 2.339 1.662 3.833 1.662 1.503 0 2.776-.564 3.854-1.654.17-.171.44-.416.846-.926" fill="#FFF" mask="url(#ctb)"/><path d="M34.173 18.177c0 1.015-.667 1.94-1.47 2.775-1.056 1.1-2.332 1.65-3.835 1.65-1.504 0-2.784-.55-3.846-1.65-1.06-1.1-1.59-2.431-1.59-3.996 0-1.554.531-2.886 1.593-3.996 1.061-1.11 2.344-1.664 3.847-1.664 1.505 0 2.775.554 3.83 1.664.804.835 1.47 1.766 1.47 2.791v2.426zm0-7.802c-1.244-1.638-3.288-2.457-5.31-2.457-2.397 0-4.437.882-6.129 2.648-1.69 1.765-2.535 3.896-2.535 6.39 0 2.495.847 4.626 2.539 6.39 1.692 1.766 3.727 2.648 6.125 2.648 2.02 0 4.066-.818 5.31-2.457v2.442h3.232V.653h-3.232v9.722zM53.959 18.16c-.249 1.017-.662 1.944-1.465 2.781-1.057 1.103-2.33 1.654-3.834 1.654-1.503 0-2.782-.551-3.843-1.654-1.062-1.102-1.59-2.436-1.59-4.005 0-1.557.531-2.892 1.592-4.005 1.062-1.113 2.345-1.67 3.848-1.67 1.504 0 2.77.557 3.827 1.67.802.837 1.216 1.77 1.465 2.797v2.432zm0-7.82c-1.493-1.642-3.284-2.463-5.305-2.463-2.398 0-4.435.884-6.127 2.654-1.69 1.77-2.533 3.905-2.533 6.405 0 2.5.848 4.636 2.539 6.405 1.692 1.77 3.723 2.654 6.12 2.654 2.022 0 3.813-.82 5.306-2.463v2.457h3.233V.653h-3.233v9.688z" fill="#FFD330" mask="url(#ctb)"/><path d="M5.48 21.419c-.739-.566-1.307-1.31-1.702-2.233-.61-1.424-.632-2.86-.069-4.308.561-1.44 1.545-2.471 2.95-3.094 1.406-.623 2.821-.647 4.246-.073.341.138.658.301.953.488l1.908-2.759a9.282 9.282 0 0 0-1.644-.857c-2.262-.91-4.514-.873-6.758.115C3.12 9.685 1.55 11.334.65 13.644c-.9 2.31-.864 4.606.107 6.89.648 1.523 1.586 2.74 2.81 3.653l1.914-2.768" fill="#FFF" mask="url(#ctb)"/><path d="M16.977 13.376c-.654-1.545-1.61-2.775-2.863-3.695l-1.909 2.76c.76.571 1.343 1.331 1.744 2.28.605 1.434.628 2.87.068 4.309-.564 1.45-1.547 2.48-2.95 3.092-1.402.614-2.814.633-4.239.06a5.94 5.94 0 0 1-1.003-.518l-1.914 2.767c.517.346 1.081.645 1.693.892 2.271.915 4.526.879 6.765-.11 2.239-.99 3.809-2.64 4.708-4.95.9-2.31.866-4.605-.1-6.887" fill="#FFD330" mask="url(#ctb)"/><path d="M159.595 14.983a5.609 5.609 0 0 1 1.276-2.074c1.037-1.08 2.28-1.631 3.728-1.656 1.422.023 2.64.57 3.646 1.649.855.915 1.31 1.605 1.367 2.07l-10.017.011zm13.306 3.286c.041-.751.062-1.2.062-1.35 0-.36-.013-.714-.042-1.058-.21-2.056-1.023-3.841-2.437-5.355-1.256-1.345-2.715-2.175-4.375-2.494a6.641 6.641 0 0 0-1.405-.15l-.098.001-.103-.002c-2.339 0-4.336.886-5.989 2.655-1.619 1.733-2.443 3.818-2.477 6.255 0 .05-.003.101-.003.153v.005c0 2.505.823 4.64 2.47 6.402 1.652 1.77 3.65 2.655 5.989 2.655.024 0 .05 0 .08-.003.043 0 .087.003.131.003 2.398 0 4.444-.885 6.14-2.655l-2.285-2.401c-.806.815-1.72 1.335-2.759 1.546l-.007-.009c-.459.045-.845.092-1.09.117-1.493 0-2.77-.555-3.832-1.662a5.525 5.525 0 0 1-1.439-2.643h11.272l2.197-.01zM109.18 14.983a5.59 5.59 0 0 1 1.275-2.074c1.037-1.08 2.28-1.631 3.728-1.656 1.423.023 2.64.57 3.647 1.649.854.915 1.31 1.605 1.366 2.07l-10.016.011zm13.305 3.286c.042-.751.062-1.2.062-1.35 0-.36-.013-.714-.041-1.058-.21-2.056-1.024-3.841-2.438-5.355-1.257-1.345-2.715-2.175-4.374-2.494a6.65 6.65 0 0 0-1.405-.15l-.099.001-.102-.002c-2.34 0-4.336.886-5.99 2.655-1.618 1.733-2.442 3.818-2.476 6.255-.001.05-.003.101-.003.153v.005c-.001 2.505.822 4.64 2.47 6.402 1.652 1.77 3.649 2.655 5.988 2.655a1.2 1.2 0 0 0 .079-.003c.044 0 .088.003.133.003 2.397 0 4.444-.885 6.14-2.655l-2.285-2.401c-.807.815-1.722 1.335-2.76 1.546l-.006-.009c-.46.045-.845.092-1.09.117-1.493 0-2.77-.555-3.833-1.662a5.53 5.53 0 0 1-1.438-2.643h11.271l2.197-.01zM155.428 7.895l-7.266 7.32 7.266 10.737h-3.752l-5.115-7.62-.163.195v7.425h-3.05V.61h3.05v12.054l4.686-4.768h4.344" fill="#FFF" mask="url(#ctb)"/><path d="M68.557 16.533c-.677-.623-1.765-1.315-3.264-2.073-.81-.48-1.329-.82-1.559-1.02a1.117 1.117 0 0 1-.38-.853c0-.335.13-.622.39-.862a1.33 1.33 0 0 1 .934-.359c.362 0 .637.116.87.301.115.092.265.216.466.38.102.084.32.269.45.374l2.277-2.774-.536-.462c-.931-.869-2.126-1.297-3.527-1.297-1.403 0-2.6.46-3.59 1.38-.992.919-1.487 2.025-1.487 3.32 0 1.281.495 2.379 1.486 3.293.569.524 1.529 1.127 2.883 1.806.991.58 1.638 1.01 1.94 1.288.435.4.653.886.653 1.455 0 .591-.221 1.087-.662 1.488-.441.401-.97.602-1.586.602-.617 0-1.12-.23-1.596-.602-.434-.338-.477-.363-1.051-.85l-2.127 2.805c.385.348-.279-.26.531.487C61.245 25.452 62.658 26 64.315 26c1.668 0 3.085-.544 4.251-1.631 1.167-1.087 1.75-2.4 1.75-3.938 0-1.506-.586-2.804-1.759-3.897" fill="#FFD330" mask="url(#ctb)"/><path d="M101.387 9.795c-1-1.225-2.61-2.015-4.286-2.015l-.305.005c-1.208 0-2.25.229-3.283.673l.02-7.877h-3.17V26h3.17V13.32c.01-.002-.002-1.11-.002-1.11.543-.601 1.301-.74 1.994-.918.291-.06.61-.095 1.157-.107 1.054.02 1.832.345 2.328.98.513.656.77 1.444.77 2.364v11.469h3.154V14.406c-.03-1.85-.546-3.386-1.547-4.611" fill="#FFF" mask="url(#ctb)"/></g></svg>